<?xml version="1.0" standalone="no"?>
<!DOCTYPE svg PUBLIC "-//W3C//DTD SVG 1.1//EN" "http://www.w3.org/Graphics/SVG/1.1/DTD/svg11.dtd" >
<!--
2013-9-30: Created.
-->
<svg>
<metadata>
Created by iconfont
</metadata>
<defs>

<font id="iconfont" horiz-adv-x="1024" >
  <font-face
    font-family="iconfont"
    font-weight="500"
    font-stretch="normal"
    units-per-em="1024"
    ascent="896"
    descent="-128"
  />
    <missing-glyph />
    
    <glyph glyph-name="x" unicode="x" horiz-adv-x="1001"
d="M281 543q-27 -1 -53 -1h-83q-18 0 -36.5 -6t-32.5 -18.5t-23 -32t-9 -45.5v-76h912v41q0 16 -0.5 30t-0.5 18q0 13 -5 29t-17 29.5t-31.5 22.5t-49.5 9h-133v-97h-438v97zM955 310v-52q0 -23 0.5 -52t0.5 -58t-10.5 -47.5t-26 -30t-33 -16t-31.5 -4.5q-14 -1 -29.5 -0.5
t-29.5 0.5h-32l-45 128h-439l-44 -128h-29h-34q-20 0 -45 1q-25 0 -41 9.5t-25.5 23t-13.5 29.5t-4 30v167h911zM163 247q-12 0 -21 -8.5t-9 -21.5t9 -21.5t21 -8.5q13 0 22 8.5t9 21.5t-9 21.5t-22 8.5zM316 123q-8 -26 -14 -48q-5 -19 -10.5 -37t-7.5 -25t-3 -15t1 -14.5
t9.5 -10.5t21.5 -4h37h67h81h80h64h36q23 0 34 12t2 38q-5 13 -9.5 30.5t-9.5 34.5q-5 19 -11 39h-368zM336 498v228q0 11 2.5 23t10 21.5t20.5 15.5t34 6h188q31 0 51.5 -14.5t20.5 -52.5v-227h-327z" />
    

    
    <glyph glyph-name="export" unicode="&#58910;" d="M129.223285 612.578975l768.622451 0 0-233.404887 69.224384-69.221548L967.07012 735.355253c0 34.805714-28.216778 63.021336-63.023918 63.021336L123.023842 798.376589c-34.808163 0-63.024941-28.216645-63.024941-63.021336L59.998901 32.64372400000002c0-34.805714 28.216778-63.021336 63.024941-63.021336l591.558665 0 0 74.964342L129.223285 44.58672999999999 129.223285 612.578975zM904.045179-30.377612c34.80714 0 63.023918 28.215622 63.023918 63.021336l0 35.5691-98.593452-98.590436L904.045179-30.377612zM1007.62336 189.08268199999998L771.378328 425.319058l0-156.14527C496.528511 262.713656 508.297015 456.077595 578.277653 582.807928 405.553886 396.134365 442.234776 97.07210499999997 771.378328 105.646388l0-152.799058L1007.62336 189.08268199999998z"  horiz-adv-x="1024" />

    
    <glyph glyph-name="starwenjiandaoru" unicode="&#58891;" d="M616.813672 749.253934 616.813672 585.680485 752.767064 585.680485ZM248.893138 211.706071l224.898143 0 0-59.912531-224.898143 0 0 59.912531ZM248.893138 65.43366l265.834484 0 0-59.849086-265.834484 0 0 59.849086ZM248.893138 357.916061l265.338181 0 0-59.914578-265.338181 0 0 59.914578ZM709.683826 261.036593 709.683826 355.404867 535.791357 174.213155 709.683826 4.002542 709.683826 98.370817 956.43979 98.370817 956.43979 261.036593ZM635.436822-64.836289 178.858062-64.836289 178.858062 465.769464 635.436822 465.769464 635.436822 373.601298 752.767064 465.707043 752.767064 532.583173 572.767504 532.583173 572.767504 749.253934 61.52782 749.253934 61.52782-152.662567 635.436822-152.662567 752.523517-152.662567 752.767064-152.662567 752.767064-106.958642 635.436822-14.851874Z"  horiz-adv-x="1024" />

    
    <glyph glyph-name="starwenjiandaochu" unicode="&#58892;" d="M632.334157 765.967594 632.334157 602.394145 768.287549 602.394145ZM264.413624 228.419731l224.898143 0 0-59.912531-224.898143 0 0 59.912531ZM264.413624 82.14732l224.898143 0 0-59.848063-224.898143 0 0 59.848063ZM264.413624 374.629721l224.40184 0 0-59.914578-224.40184 0 0 59.914578ZM971.960275 190.926816 798.068829 372.118528 798.068829 277.750253 551.311843 277.750253 551.311843 115.084477 798.068829 115.084477 798.068829 20.716202ZM650.957307-48.122629 194.378547-48.122629 194.378547 482.483124 650.957307 482.483124 650.957307 390.314958 768.287549 390.314958 768.287549 549.296833 588.287989 549.296833 588.287989 765.967594 77.048305 765.967594 77.048305-135.948907 650.957307-135.948907 768.044002-135.948907 768.287549-135.948907 768.287549 1.860762 650.957307 1.860762Z"  horiz-adv-x="1024" />

    
    <glyph glyph-name="transmit" unicode="&#59630;" d="M841.143 164.57100000000003c-41.972 0-79.811-17.683-106.488-45.999L329.117 276.274c-0.235 17.633-3.588 34.512-9.537 50.112l313.215 290.834c18.842-8.841 39.872-13.791 62.061-13.791 80.79 0 146.286 65.496 146.286 146.286S775.647 896 694.857 896 548.571 830.504 548.571 749.7139999999999c0-18.351 3.389-35.908 9.559-52.093L244.923 406.778c-18.843 8.842-39.875 13.793-62.066 13.793-80.79 0-146.286-65.496-146.286-146.286s65.496-146.286 146.286-146.286c41.974 0 79.815 17.685 106.492 46.003L694.882 16.289999999999964c1.07-79.869 66.138-144.29 146.26-144.29 80.79 0 146.286 65.496 146.286 146.286S921.933 164.57100000000003 841.143 164.57100000000003z"  horiz-adv-x="1024" />

    
    <glyph glyph-name="undo3" unicode="&#58980;" d="M442.181818 733.090909l0-186.181818 0-46.545455 46.545455 0 116.363636 0c183.854545 0 337.454545-144.290909 349.090909-325.818182-62.836364 60.509091-151.272727 93.090909-256 93.090909l-209.454545 0-46.545455 0 0-46.545455 0-190.836364L88.436364 384 442.181818 733.090909M488.727273 849.454545L23.272727 384l465.454545-465.454545L488.727273 221.090909l209.454545 0c132.654545 0 244.363636-62.836364 286.254545-181.527273 11.636364 34.909091 16.290909 72.145455 16.290909 111.709091l0 0c0 216.436364-176.872727 395.636364-395.636364 395.636364l-116.363636 0L488.727273 849.454545 488.727273 849.454545z"  horiz-adv-x="1024" />

    
    <glyph glyph-name="import" unicode="&#58990;" d="M849.630159 732.08579L216.808396 732.08579c-28.201296 0-51.057863-22.870894-51.057863-51.070142l0-257.93763c15.229866 10.904351 33.748638 21.429055 56.075133 30.131251l0 128.302131 622.773919 0 0-460.34248L228.352313 121.16891899999996c4.541433-19.525706 12.536524-40.139186 23.38664-59.772338l0.544399-0.979304 597.346807 0c28.200272 0 51.070142 22.870894 51.070142 51.070142L900.700301 681.015647C900.700301 709.214896 877.830431 732.08579 849.630159 732.08579zM362.10662 290.12700600000005l0-126.562511 191.419657 191.447287-191.419657 191.473893 0-123.841539C95.426885 429.604664 65.704956 187.22333500000002 205.646172 35.915232999999944 148.945799 138.62754700000005 139.413702 295.34791399999995 362.10662 290.12700600000005z"  horiz-adv-x="1024" />

    
    <glyph glyph-name="undo" unicode="&#58940;" d="M505.182702-127.17072599999995c-67.938925 0-133.861161 13.311764-195.935646 39.568071-59.942787 25.353387-113.768922 61.643707-159.986317 107.860093-46.217395 46.217395-82.506706 100.044539-107.860093 159.986317C15.144338 242.31824099999994 1.832574 308.241485 1.832574 376.179402c0 67.938925 13.312773 133.861161 39.568071 195.935646 25.353387 59.942787 61.642698 113.769931 107.860093 159.986317 46.217395 46.217395 100.044539 82.506706 159.986317 107.860093 62.074485 26.255298 127.99773 39.568071 195.935646 39.568071S639.043863 866.217766 701.119357 839.962468c59.941778-25.353387 113.768922-61.642698 159.986317-107.860093s82.505697-100.044539 107.860093-159.986317c26.255298-62.074485 39.568071-127.99773 39.568071-195.935646 0-67.937916-13.311764-133.861161-39.568071-195.935646-25.354396-59.941778-61.643707-113.768922-107.860093-159.986317s-100.044539-82.506706-159.986317-107.860093C639.043863-113.85795299999995 573.121627-127.17072599999995 505.182702-127.17072599999995zM505.182702 818.999592c-59.793478 0-117.783133-11.703658-172.355816-34.786126-52.727498-22.301618-100.086911-54.234719-140.764716-94.912524s-72.610905-88.038226-94.912524-140.764716c-23.082468-54.573692-34.786126-112.562339-34.786126-172.355816s11.703658-117.782124 34.786126-172.355816c22.301618-52.727498 54.234719-100.086911 94.912524-140.764716 40.676796-40.676796 88.037217-72.610905 140.764716-94.911515 54.573692-23.082468 112.562339-34.786126 172.355816-34.786126 59.794486 0 117.783133 11.704667 172.356825 34.786126 52.727498 22.300609 100.086911 54.234719 140.764716 94.911515 40.676796 40.677805 72.610905 88.038226 94.911515 140.764716 23.082468 54.573692 34.786126 112.562339 34.786126 172.355816 0 59.794486-11.704667 117.783133-34.786126 172.355816-22.300609 52.727498-54.234719 100.086911-94.912524 140.764716-40.676796 40.677805-88.037217 72.610905-140.763707 94.912524C622.965835 807.295934 564.977189 818.999592 505.182702 818.999592zM595.292095 472.020067L355.315141 472.020067l61.910043 61.910043c11.820685 11.820685 11.820685 30.985791 0 42.805467-11.820685 11.820685-30.985791 11.820685-42.805467 0L261.008936 463.326814c-5.953219-5.953219-8.905111-13.768773-8.861731-21.571212-0.043381-7.802439 2.908512-15.619002 8.861731-21.571212l113.409772-113.409772c11.820685-11.820685 30.985791-11.820685 42.805467 0 11.820685 11.820685 11.820685 30.985791 0 42.805467l-61.911052 61.911052 239.976954 0c53.814029 0 97.595053-43.446087 97.595053-96.849514 0-53.403427-43.781025-96.849514-97.595053-96.849514L374.090832 217.79210999999998c-16.714612 0-30.265473-13.550861-30.265473-30.265473s13.550861-30.265473 30.265473-30.265473l221.201263 0c87.191802 0 158.126 70.600269 158.126 157.38046C753.418095 401.419797 682.482888 472.020067 595.292095 472.020067z"  horiz-adv-x="1024" />

    
    <glyph glyph-name="checkhistory2" unicode="&#58931;" d="M221.909047 820.876115C221.909047 798.640597 221.698504 776.605271 222.330134 754.369753 222.954505 736.867326 232.995255 724.097991 248.045491 716.276236 271.256106 704.128922 294.466721 705.365817 315.789705 721.009327 327.914111 729.860636 334.607944 741.807758 334.607944 757.043735L334.607944 821.905669 334.607944 827.668316 683.580299 827.668316C683.580299 826.0238879999999 683.790845 824.164971 683.790845 822.313202 683.790845 801.929452 684.415216 781.338362 683.580299 760.954612 682.534844 737.68954 697.592342 719.357751 718.080407 712.1508690000001 738.365194 704.943987 757.807804 707.003096 775.791128 719.357751 789.592624 729.038423 796.700284 742.422631 796.700284 759.303036 796.489745 779.894126 796.700284 800.485217 796.700284 821.076308L796.700284 827.460975C798.791201 827.668316 800.257748 827.668316 801.717029 827.668316 829.733846 827.668316 857.961209 827.875656 885.978025 827.668316 920.688673 827.253635 950.796406 815.728342 974.217566 789.782138 989.899433 772.279712 996.796548 751.481281 996.796548 728.423548L996.796548 361.48745899999994C996.796548 232.378464 996.172178 103.06927299999995 997.007093-26.039720999999986 997.428179-79.99123499999996 958.535698-114.58140800000001 916.085759-124.26207899999997 905.420636-126.73587299999997 894.131142-127.76542400000005 883.052193-127.76542400000005 634.0227-127.97276699999998 384.993202-127.97276699999998 135.970965-127.97276699999998 107.322519-127.97276699999998 81.186074-120.97322699999995 58.60709-103.263461 34.351017-84.11660300000005 22.22661-59.40729799999997 22.22661-28.720852000000036L22.22661 293.322371C22.22661 436.637791 22.850982 580.153401 21.805524 723.46882 21.384437 780.508999 61.532919 814.484299 104.396689 824.157822 113.181438 826.216931 122.380015 827.246486 131.368048 827.246486 160.219779 827.661167 189.289313 827.453826 218.141044 827.453826 218.975958 827.868508 219.810872 827.868508 221.901788 827.868508 221.909047 825.201674 221.909047 822.9352240000001 221.909047 820.876115ZM924.667221 643.75503L93.738826 643.75503 93.738826 636.47687 93.738826-8.320803999999953 93.738826-13.015340000000037C93.949369-21.703490999999985 96.8752-29.446214000000055 102.313032-35.55073900000002 111.722152-46.11344399999996 123.643274-48.69707000000005 136.392052-48.69707000000005L879.29145-48.69707000000005C884.097654-48.69707000000005 889.121658-48.460713000000055 893.927862-47.75978999999995 909.820269-45.17616499999997 924.870507-32.266197000000034 924.870507-9.029874999999947 924.659961 206.21782399999995 924.659961 421.693733 924.659961 636.941435L924.659961 643.746881 924.667221 643.75503ZM306.380584 811.195443L306.380584 753.540391C306.380584 735.42309 296.13655 725.949759 277.528853 726.9793139999999 263.937902 727.801527 254.318239 734.801068 252.437867 745.303954 252.01678 747.363063 252.01678 749.422172 252.01678 751.481281L252.01678 869.465369C252.01678 886.553115 262.260814 896.84866 279.823053 895.819106 285.674713 895.404424 291.744176 893.345315 296.971465 890.671333 303.244211 887.375329 306.380584 881.612683 306.380584 873.99112 306.170041 852.985349 306.170041 831.986726 306.380584 811.188294L306.380584 811.195443ZM712.228747 811.195443L712.228747 869.465369C712.228747 887.79001 725.398613 898.707578 744.013568 895.411573 756.559063 893.352464 764.298354 886.967797 766.178726 877.294273 766.599811 875.235164 766.599811 873.176055 766.599811 871.116946 766.599811 831.17166 766.389271 791.226375 766.810356 751.073749 767.020896 736.245304 756.776863 728.8382300000001 745.276829 726.9793139999999 738.379708 725.742418 731.264793 726.3644400000001 724.992043 729.653296 716.838927 733.771514 712.236008 739.7415 712.446548 749.214831 712.446548 770.013263 712.236008 790.604353 712.236008 811.195443L712.228747 811.195443ZM483.002315 456.458532L483.002315 279.26982799999996 569.996637 186.53403100000003 608.752401 221.85808399999996 535.776121 299.571009 535.776121 456.458532 483.002315 456.458532ZM450.661867 549.3693049999999C409.844626 540.030761 371.501158 521.028856 339.754416 494.474912 324.746864 481.969384 311.223576 467.677353 299.34947 452.167251L299.34947 478.233967 246.575665 478.233967 246.575665 342.622077 384.282314 342.622077 384.282314 394.593102 324.417028 394.593102C353.112785 447.457377 402.588228 484.973959 462.618432 498.778761 517.536174 511.365494 574.185557 502.108156 622.011821 472.793251 669.838079 443.478346 703.234005 397.516472 716.01516 343.434128 728.796315 289.35177999999996 719.395984 233.56413699999996 689.628256 186.46539800000005 659.860534 139.36665800000003 613.188697 106.478745 558.270956 93.89201400000002 503.353214 81.30528200000003 446.703831 90.56261800000004 398.877569 119.877522 351.051308 149.19242699999995 317.655385 195.15430000000003 304.874228 249.23664799999995L253.502227 237.46196099999997C269.499286 169.81842800000004 311.223576 112.40669100000002 371.006404 75.70215299999995 413.390367 49.71664499999997 461.299087 36.31786199999999 509.94994 36.31786199999999 529.987494 36.31786199999999 550.189966 38.591594999999984 570.22752 43.13906199999997 638.915926 58.892776000000026 697.214492 99.98236699999995 734.485992 158.85579299999995 771.757492 217.72921399999996 783.466683 287.48407199999997 767.469623 355.04640199999994 751.472559 422.689937 709.748271 480.18288 649.882984 516.887416 590.017697 553.59195 519.267815 565.123021 450.661867 549.3693049999999Z"  horiz-adv-x="1024" />

    
    <glyph glyph-name="caozuoliucheng" unicode="&#59098;" d="M928.414379 890.829059 100.705365 890.829059c-52.733363 0-95.534423-42.749863-95.534423-95.534423l0-827.760212c0-52.733363 42.749863-95.534423 95.534423-95.534423l827.760212 0c52.733363 0 95.534423 42.749863 95.534423 95.534423L1024 795.294635C1023.948803 848.079196 981.19894 890.829059 928.414379 890.829059zM956.060997-32.414379c0-15.20564-12.389781-27.59542-27.59542-27.59542L100.705365-60.0098c-15.20564 0-27.59542 12.389781-27.59542 27.59542L73.109945 627.623019l882.951052 0L956.060997-32.414379zM956.060997 661.618119 73.109945 661.618119 73.109945 795.294635c0 15.20564 12.389781 27.59542 27.59542 27.59542l828.835358 0c15.20564 0 26.520274-12.389781 26.520274-27.59542L956.060997 661.618119zM837.180541 704.060797l76.386581 0L913.567122 780.447378l-76.386581 0L837.180541 704.060797zM684.356182 704.060797l76.386581 0L760.742763 780.447378l-76.386581 0L684.356182 704.060797zM523.084246 704.060797l76.386581 0L599.470826 780.447378l-76.386581 0L523.084246 704.060797zM217.435528 330.524274l399.032848 0c9.369132 0 16.99755 7.577221 16.99755 16.946353L633.465927 500.294985c0 9.369132-7.577221 16.99755-16.99755 16.99755L217.435528 517.292535c-9.369132 0-16.99755-7.577221-16.99755-16.99755l0-152.824359C200.437978 338.101495 208.066397 330.524274 217.435528 330.524274zM217.435528 58.819459l229.210939 0c9.369132 0 16.99755 7.628419 16.99755 16.99755L463.644018 135.20604l169.770711 0 0-59.440228c0-9.369132 7.628419-16.99755 16.99755-16.99755l229.210939 0c9.369132 0 16.99755 7.628419 16.99755 16.99755l0 152.824359c0 9.369132-7.577221 16.99755-16.99755 16.99755l-229.210939 0c-9.369132 0-16.99755-7.628419-16.99755-16.99755l0-59.440228L463.644018 169.149943l0 59.440228c0 9.369132-7.628419 16.99755-16.99755 16.99755L217.435528 245.587721c-9.369132 0-16.99755-7.628419-16.99755-16.99755l0-152.824359C200.437978 66.447878 208.066397 58.819459 217.435528 58.819459zM684.356182 406.910854l101.882906 0 0-110.381681c0-9.369132 7.628419-16.99755 16.99755-16.99755 9.369132 0 16.99755 7.628419 16.99755 16.99755L820.234188 423.908405c0 9.369132-7.577221 16.99755-16.99755 16.99755l-118.829259 0c-9.369132 0-16.99755-7.628419-16.99755-16.99755S674.987051 406.910854 684.356182 406.910854z"  horiz-adv-x="1024" />

    
    <glyph glyph-name="invert-check" unicode="&#58885;" d="M910.69 660.204h-121.856v123.313c0 61.834-50.137 112.010-112.010 112.010l-563.594 0c-61.913 0-112.049-50.137-112.049-112.010v-563.673c0-61.873 50.137-112.049 112.049-112.049l121.895-0v-123.274c0-61.873 50.137-112.049 112.049-112.049h563.515c61.913 0 112.089 50.137 112.089 112.049v563.633c0 61.873-50.176 112.049-112.089 112.049zM235.126 548.155v-365.056l-91.412-0c-37.14 0-67.23 30.129-67.23 67.23l-0 502.666c0 37.1 30.090 67.23 67.23 67.23h502.666c37.061 0 67.151-30.129 67.151-67.23v-92.79h-366.356c-61.913 0-112.049-50.176-112.049-112.049zM844.249 362.063l-246.233-246.154c-4.923-4.923-11.146-7.365-17.605-8.192-11.618-6.498-26.466-5.238-36.352 4.687l-130.324 130.324c-12.012 12.012-12.012 31.468 0 43.481l14.454 14.454c12.012 12.012 31.468 12.012 43.481 0l97.595-97.634 217.088 217.009c11.934 12.012 31.39 12.012 43.402 0l14.533-14.494c11.855-12.012 11.855-31.468-0.039-43.481z"  horiz-adv-x="1024" />

    
    <glyph glyph-name="launchprocess3" unicode="&#59114;" d="M740.352 843.776l-14.336 6.656c-65.024 28.16-133.632 42.496-204.8 42.496-117.76 0-230.912-40.96-322.048-115.2l47.616-55.296c78.336 62.976 174.592 97.28 273.92 97.28 61.44 0 120.32-12.8 176.64-36.864l14.336-6.144-20.48-49.664 133.632 42.496L762.88 896l-22.528-52.224zM503.296-51.200000000000045c-61.44 0-120.32 12.8-176.64 36.864l-14.336 6.144 20.48 48.64-133.632-42.496L261.12-128l22.016 52.224 14.336-6.656c65.024-28.16 133.632-42.496 204.8-42.496 117.76 0 230.912 40.96 321.536 114.176L776.192 46.08000000000004c-77.312-63.488-173.568-97.28-272.896-97.28zM113.664 570.3679999999999l6.144 14.336 48.64-20.48-42.496 133.632-125.44-62.464 52.224-22.016-6.656-14.336c-77.824-177.152-49.664-377.856 72.704-525.824l55.296 47.616c-103.936 126.976-126.976 298.496-60.416 449.536zM971.776 156.67200000000003l6.656 14.336c77.824 177.152 49.664 377.856-72.704 525.824l-55.296-47.616c102.912-126.976 125.952-298.496 59.904-450.048l-6.144-14.336-48.64 20.48 42.496-133.632 125.44 62.464-51.712 22.528zM676.864 424.96h-120.32v120.32c0 22.016-17.92 39.936-39.936 39.936s-39.936-17.92-39.936-39.936V424.96h-120.32c-22.016 0-39.936-17.92-39.936-39.936s17.92-39.936 39.936-39.936H476.16v-120.32c0-22.016 17.92-39.936 39.936-39.936s39.936 17.92 39.936 39.936v120.32h120.32c22.016 0 39.936 17.92 39.936 39.936 0.512 22.016-17.408 39.936-39.424 39.936z"  horiz-adv-x="1024" />

    
    <glyph glyph-name="email" unicode="&#59141;" d="M1044.470113 676.365418L189.536044 676.365418c-59.020535 0-106.867465-47.845517-106.867465-106.867465L82.668579-18.26957200000004c0-59.020535 47.845517-106.867465 106.867465-106.867465l854.935481 0c59.020535 0 106.866052 47.845517 106.866052 106.867465L1151.337578 569.497953C1151.337578 628.5184879999999 1103.490648 676.365418 1044.470113 676.365418zM1097.903139 8.44764699999996c0-44.265048-35.883785-80.150246-80.150246-80.150246L216.251851-71.70259899999996c-44.265048 0-80.150246 35.883785-80.150246 80.150246L136.101606 542.782146c0 44.265048 35.883785 80.150246 80.150246 80.150246l801.501043 0c44.265048 0 80.150246-35.883785 80.150246-80.150246L1097.903139 8.44764699999996zM910.886841 890.098935L323.119316 890.098935c-59.020535 0-106.867465-47.845517-106.867465-106.867465l0-133.583272 53.433026 0L269.684877 756.515663c0 44.265048 35.883785 80.150246 80.150246 80.150246l534.334499 0c44.265048 0 80.150246-35.883785 80.150246-80.150246l0-106.867465 53.433026 0L1017.752894 783.23147C1017.752894 842.253418 969.907377 890.098935 910.886841 890.098935zM349.835123 783.23147l534.334499 0 0-53.433026-534.334499 0 0 53.433026ZM1054.749661 622.930979L617.003079 185.184397 179.255084 622.930979 103.689534 622.930979 617.003079 109.617434 1130.316623 622.930979ZM103.654223-75.042957l75.566963 0 328.239316 326.616452-37.68885 37.68885L103.654223-75.042957zM764.234505 289.26375700000006L726.545655 251.57349499999998l328.239316-326.616452 75.566963 0L764.234505 289.26375700000006z"  horiz-adv-x="1174" />

    
    <glyph glyph-name="launchprocess2" unicode="&#58886;" d="M865.422222 874.666667H155.022222C69.688889 874.666667 0 804.977778 0 720.355556v-675.555556c0-85.333333 69.688889-158.577778 155.022222-158.577778h710.4c85.333333 0 158.577778 73.244444 158.577778 158.577778v675.555556C1024 804.977778 955.733333 874.666667 865.422222 874.666667zM945.777778 44.799999999999955c0-44.088889-35.555556-80.355556-80.355556-80.355556H158.577778C113.777778-35.555556000000024 78.222222 0 78.222222 44.799999999999955V723.2C78.222222 768 113.777778 803.555556 158.577778 803.555556h707.555555c44.088889 0 80.355556-35.555556 80.355556-80.355556v-678.4zM637.155556 327.11111100000005c-12.088889 7.822222-25.6 14.933333-39.111112 20.622222 48.355556 34.133333 79.644444 90.311111 79.644445 153.6C677.688889 605.1555559999999 593.777778 689.777778 489.955556 689.777778S301.511111 605.1555559999999 301.511111 501.333333c0-63.288889 31.288889-119.466667 79.644445-153.6-89.6-38.4-155.733333-123.022222-167.111112-223.288889-2.133333-17.066667 11.377778-31.288889 28.444445-31.288888 14.222222 0 27.022222 10.666667 28.444444 24.888888C283.733333 227.55555600000002 376.177778 312.177778 489.955556 312.177778c36.266667 0 71.111111-9.244444 101.688888-24.888889l45.511112 39.822222z m-147.2 52.622222c-67.555556 0-121.6 54.044444-121.6 121.6 0 67.555556 54.044444 121.6 121.6 121.6C556.8 622.933333 611.555556 568.8888890000001 611.555556 501.333333c0-67.555556-54.755556-121.6-121.6-121.6zM832.711111 238.222222l-68.266667 80.355556c-4.977778 6.4-12.8 9.244444-19.911111 9.244444-5.688889 0-12.088889-1.422222-17.066666-5.688889-10.666667-9.244444-12.088889-24.888889-2.844445-36.266666l39.111111-44.088889H579.555556c-14.222222 0-26.311111-14.222222-26.311112-28.444445s11.377778-28.444444 26.311112-28.444444H763.022222l-39.111111-44.8c-9.244444-10.666667-7.822222-27.022222 2.844445-36.266667 10.666667-9.244444 27.733333-7.822222 36.977777 2.844445l70.4 82.488889c4.266667 2.844444 7.111111 6.4 9.244445 11.377777 1.422222 3.555556 2.133333 7.822222 2.133333 12.088889 0 4.266667-0.711111 8.533333-2.133333 12.088889-2.133333 5.688889-5.688889 9.955556-10.666667 13.511111z"  horiz-adv-x="1024" />

    
    <glyph glyph-name="view" unicode="&#58995;" d="M271.72067555 582.83918222c0-14.336 11.63605333-25.99822222 25.94019556-25.99822222h434.44906666c14.30300445 0 25.94019555 11.66336 25.94019556 25.99822222v18.96903111c0 14.336-11.63719111 25.99936-25.94019556 25.99936h-434.44906666c-14.30300445 0-25.94019555-11.66336-25.94019556-25.99936v-18.96903111zM900.60117333 6.8721777800000154L728.39054221 163.04014222c19.44689778 32.14904889 29.65959111 68.77980445 29.65959112 106.80206223 0 113.70496-92.13724445 206.21084445-205.38936889 206.21084444-113.24871111 0-205.38254222-92.50588445-205.38254223-206.21084444 0-113.70268445 92.13383111-206.20743111 205.38254223-206.20743112 48.31800889 0 94.31722667 16.76060445 131.12775111 47.49312l169.09994666-153.34627555a25.12668445 25.12668445 0 0 1 17.56615112-7.09518223c6.77888 0 13.14929778 2.64874667 17.93479111 7.45585778l12.50986667 12.55992889c9.84405333 9.88956445 9.84405333 25.98229333 0 35.87185778l-0.29809778 0.29809778zM687.28035555 269.84220445000005c0-74.57336889-60.38983111-135.24309333-134.61731556-135.24309334-74.22862222 0-134.61731555 60.66972445-134.61731555 135.24309334S478.43555555 405.08416 552.66303999 405.08416s134.61731555-60.66858667 134.61731556-135.24195555zM297.65973333 670.65742222h434.44906666c14.30300445 0 25.94019555 11.66336 25.94019556 25.99936v18.96903111c0 14.336-11.63719111 25.99822222-25.94019556 25.99822222h-434.44906666c-14.30300445 0-25.94019555-11.66336-25.94019556-25.99822222v-18.96903111c0.00113778-14.336 11.63719111-25.99936 25.94019556-25.99936zM892.67086221 893.38652445H137.10222221c-29.92696889 0-54.27313778-24.42808889-54.27313777-54.45290667v-910.5408c0-30.02481778 24.34616889-54.45176889 54.27313777-54.45176889l311.6703289-0.00341334c14.30300445 0 25.94019555 11.66336 25.94019555 25.99822223v18.97016889c0 11.88636445-8.00085333 21.93521778-18.88938667 25.02087111v0.98076444H155.99502221c-1.31982222 0-2.39388445 1.10250667-2.39388444 2.45646223V819.96344889c0 1.35395555 1.07406222 2.45532445 2.39388444 2.45532444h717.78304c1.31982222 0 2.39388445-1.10136889 2.39388445-2.45532444v-369.91089778c0-14.336 11.63719111-25.99822222 25.94019555-25.99822222h18.8882489c11.87384889 0 21.91018667 8.03726222 24.97763555 18.96903111h0.96711111V838.93361778c-0.00113778 30.02595555-24.34730667 54.45290667-54.27427556 54.45290667z"  horiz-adv-x="1024" />

    
    <glyph glyph-name="undo2" unicode="&#58925;" d="M643.511222 622.7630919999999H245.147132l148.109726 148.109726c30.643392 30.643392 30.643392 71.501247 0 102.144638-30.643392 30.643392-71.501247 30.643392-102.144639 0L20.428928 602.334165c-15.321696-15.321696-20.428928-35.750623-20.428928-51.07232 0-20.428928 5.107232-35.750623 20.428928-51.072319L291.112219 229.50623399999995c30.643392-30.643392 71.501247-30.643392 102.144639 0 30.643392 30.643392 30.643392 71.501247 0 102.144639L245.147132 479.760599h398.36409c127.680798 0 234.932668-102.144638 234.932668-229.825437s-102.144638-229.825436-234.932668-229.825436H291.112219c-40.857855 0-71.501247-30.643392-71.501246-71.501247 0-40.857855 30.643392-71.501247 71.501246-71.501247h352.399003c209.396509 0 377.935162 168.538653 377.935162 372.82793s-168.538653 372.82793-377.935162 372.82793z"  horiz-adv-x="1024" />

    
    <glyph glyph-name="quanxuan" unicode="&#59395;" d="M998.59 152.028c-16.728-17.824-39.169-27.641-63.181-27.641H325.267c-24.012 0-46.448 9.818-63.181 27.641-16.385 17.455-25.41 40.664-25.41 65.351V802.828c0 24.688 9.024 47.896 25.41 65.351C278.819 885.997 301.255 895.815 325.267 895.815h610.142c24.012 0 46.448-9.818 63.181-27.636 16.385-17.455 25.41-40.664 25.41-65.351v-585.449c0-24.688-9.024-47.896-25.41-65.351zM936.52 802.803l-0.481 1.561c-0.169 0.548-0.42 0.87-0.563 1.014H325.395c-0.338-0.184-1.239-1.08-1.239-2.549V217.38c0-1.474 0.901-2.365 1.234-2.554h609.896c0.333 0.189 1.234 1.08 1.234 2.554V802.803zM623.978 339.195c-8.144-8.149-18.97-12.638-30.482-12.638-11.517 0-22.338 4.489-30.482 12.638L389.375 513.014c-8.139 8.149-12.623 18.986-12.623 30.513 0 11.522 4.484 22.359 12.623 30.508 8.139 8.149 18.965 12.638 30.482 12.638 11.512 0 22.338-4.484 30.482-12.638L593.496 430.73l252.975 253.24c16.81 16.82 44.155 16.82 60.965 0v-0.005c16.805-16.82 16.805-44.195 0-61.021L623.978 339.195z m177.427-296.172c0-24.8-19.518-44.979-43.504-44.979H207.413c-24.012 0-46.453 9.818-63.186 27.641-16.39 17.455-25.415 40.658-25.415 65.346v585.69c0 24.8 19.513 44.974 43.499 44.974 24.667 0 43.269-19.646 43.269-45.7v-585.444c0-1.469 0.901-2.355 1.229-2.539h551.092c23.986 0 43.504-20.183 43.504-44.989z m-118.817-125.85c0-24.806-19.513-44.989-43.499-44.989H88.591c-24.012 0-46.453 9.818-63.181 27.641C9.019-82.719 0-59.511 0-34.818V550.621c0 24.8 19.513 44.979 43.504 44.979 11.702 0 23.065-4.919 31.178-13.498 8.175-8.635 12.556-20.429 12.08-32.453v-584.948c0-1.474 0.901-2.37 1.234-2.554h551.092c23.987 0 43.5-20.173 43.5-44.974z"  horiz-adv-x="1024" />

    
    <glyph glyph-name="approve" unicode="&#58880;" d="M76.8-51.200000000000045v0.8c-42.4 0.8-76.8 36-76.8 78.4V817.6C0.8 860.8 35.2 896 78.4 896h749.6c43.2 0 77.6-35.2 77.6-78.4v-172c0-17.6-14.4-32-31.2-32-17.6 0-31.2 14.4-31.2 32V817.6c0 8-6.4 14.4-14.4 14.4H78.4C70.4 832 64 825.6 64 817.6v-789.6c0-8 6.4-14.4 14.4-14.4h317.6c17.6 0 31.2-14.4 31.2-32s-14.4-32-31.2-32H76.8zM78.4-49.60000000000002c-41.6 0-76.8 35.2-76.8 77.6V817.6C1.6 860 36.8 895.2 78.4 895.2h749.6c42.4 0 76.8-35.2 76.8-77.6v-172c0-16.8-13.6-31.2-30.4-31.2-16.8 0-30.4 13.6-30.4 31.2V817.6c0 8.8-7.2 16-16 16H78.4c-8.8 0-16-7.2-16-16v-789.6c0-8.8 7.2-16 16-16h317.6c16.8 0 30.4-13.6 30.4-31.2 0-16.8-13.6-31.2-30.4-31.2l-317.6 0.8zM508.8-128c-17.6 0-31.2 13.6-31.2 31.2v140.8c0 17.6 14.4 32 31.2 32h20l156 220.8-5.6 4c-35.2 24-56 63.2-56 106.4 0 71.2 57.6 128.8 128 128.8s128-57.6 128-128.8c0-42.4-20.8-82.4-56-106.4l-5.6-4 156-220.8h20c17.6 0 31.2-14.4 31.2-32v-140.8c0-8-3.2-16.8-8.8-22.4s-13.6-8.8-22.4-8.8H508.8z m452 63.2v76.8H540v-76.8h420.8z m-64.8 140.8L770.4 254.39999999999998h-38.4l-124.8-178.4H896zM751.2 472.8c-35.2 0-64.8-29.6-64.8-65.6s28.8-65.6 64.8-65.6c35.2 0 64.8 29.6 64.8 65.6-0.8 36.8-28.8 65.6-64.8 65.6zM508.8-127.20000000000005c-16.8 0-30.4 12.8-30.4 30.4v140.8c0 16.8 13.6 31.2 30.4 31.2h20.8l156.8 222.4-6.4 4.8c-35.2 24-55.2 63.2-55.2 105.6 0 70.4 56.8 127.2 126.4 127.2s126.4-56.8 126.4-127.2c0-41.6-20.8-81.6-55.2-105.6l-6.4-4.8 156.8-222.4h20.8c16.8 0 30.4-13.6 30.4-31.2v-140.8c0-8-3.2-16-8.8-21.6-5.6-5.6-13.6-8.8-21.6-8.8H508.8z m30.4 61.6h423.2v79.2H539.2v-79.2z m65.6 140.8h293.6l-128 180h-39.2l-126.4-180z m146.4 398.4c-36.8 0-65.6-30.4-65.6-66.4s29.6-66.4 65.6-66.4 65.6 30.4 65.6 66.4c0 37.6-29.6 66.4-65.6 66.4zM676 608H213.6c-17.6 0-32 14.4-32 32s14.4 32 32 32h462.4c17.6 0 32-14.4 32-32s-13.6-32-32-32zM412.8 390.4H213.6c-17.6 0-32 14.4-32 32s14.4 32 32 32h199.2c17.6 0 32-14.4 32-32s-14.4-32-32-32zM412.8 172.79999999999995H213.6c-17.6 0-32 14.4-32 32s14.4 32 32 32h199.2c17.6 0 32-14.4 32-32s-14.4-32-32-32z"  horiz-adv-x="1024" />

    
    <glyph glyph-name="wenjian_shanchu" unicode="&#58997;" d="M611.561472 0.480256h86.033408v21.613568l-32.21504 32.21504zM210.702336 63.716352V537.250816h158.89408v159.04768H634.35776v-242.159616l31.04256-31.041536 32.19456 32.18432V759.535616H306.359296v-0.474112l-158.89408-158.574592v-600.006656h331.003904l-63.256576 63.236096zM785.760256 23.359488l94.956544 94.968832-120.357888 120.370176 120.357888 120.358912-94.956544 94.967808-120.359936-120.358912-120.380416 120.370176-94.957568-94.969856 120.369152-120.378368-120.369152-120.380416 94.957568-94.948352L665.37984 143.72864z"  horiz-adv-x="1024" />

    
    <glyph glyph-name="transwith" unicode="&#58894;" d="M266.655838 586.201015C151.780711 450.53401 180.88934 271.72385799999995 181.928934 264.44670099999996c3.118782-18.71269 19.232487-31.707614 37.945178-31.707615 21.831472 0 38.984772 17.153299 38.984771 38.464975 0 3.118782-0.519797 5.717766-1.039594 8.836548 0 12.994924 2.598985 55.618274 39.504569 97.202031C336.828426 421.945178 423.634518 473.924873 613.360406 480.162437v-124.231473c0-14.554315 8.316751-27.549239 21.311675-34.306599 12.994924-6.237563 28.588832-5.19797 40.024366 3.638579l330.071066 249.502538c9.356345 7.277157 15.074112 18.71269 15.074111 30.668021 0 11.95533-5.717766 23.390863-15.074111 30.66802L674.696447 885.604061c-11.435533 8.836548-27.029442 10.395939-40.024366 3.638579-12.994924-6.237563-21.311675-19.752284-21.311675-34.306599V729.664975c-155.419289-6.75736-271.853807-55.098477-346.704568-143.46396m385.169543 67.573604c21.311675 0 38.464975 17.153299 38.464974 38.464975V778.006091l228.190863-172.572588-228.190863-172.572589V518.6274109999999c0 21.311675-17.153299 38.464975-38.464974 38.464975-165.295431 0-289.526904-30.66802-370.095432-90.964467 10.395939 24.430457 24.430457 48.341117 43.662944 71.212183 65.494416 76.929949 175.171574 116.434518 326.432488 116.434517m330.071066-333.189847c-21.311675 0-38.464975-17.153299-38.464975-38.464975v-231.829442c0-54.57868-44.702538-99.281218-99.281218-99.281218H177.250761c-55.098477 0-99.281218 44.702538-99.281218 99.281218V717.709645c0 54.57868 44.702538 99.281218 99.281218 99.281218h308.759391v1.559391c16.113706 4.678173 27.549239 19.232487 27.549239 36.385787s-11.435533 31.707614-27.549239 36.385786V893.401015H177.250761C80.048731 893.401015 1.039594 814.9116750000001 1.039594 717.709645v-667.41929c0-96.682234 79.009137-175.691371 176.211167-175.69137h666.899493c97.20203 0 176.211168 79.009137 176.211167 175.69137v231.829442c-0.519797 21.311675-17.673096 38.464975-38.464974 38.464975"  horiz-adv-x="1024" />

    
    <glyph glyph-name="processchart3" unicode="&#58896;" d="M1449.4805169 41.42190645000005h-81.44530576V307.87877097c0 63.34634892-51.48147723 114.82782614-114.82782613 114.82782614h-408.23202642V698.01184055h82.8530024c42.2308993 0 76.61891727 34.38801799 76.61891728 76.61891726V1010.52049523c0 42.2308993-34.38801799 76.61891727-76.61891728 76.61891727H691.73752403c-42.2308993 0-76.61891727-34.38801799-76.61891726-76.61891727v-236.09083693c0-42.2308993 34.38801799-76.61891727 76.61891726-76.61891728h76.8200168v-275.10414391h-402.1990408c-63.34634892 0-114.82782614-51.48147723-114.82782612-114.82782614V41.42190645000005h-81.44530577c-42.2308993 0-76.61891727-34.38801799-76.61891727-76.61891728v-236.09083696c0-42.2308993 34.38801799-76.61891727 76.61891727-76.61891725h236.09083695c42.2308993 0 76.61891727 34.38801799 76.61891726 76.61891725V-35.197010829999954c0 42.2308993-34.38801799 76.61891727-76.61891726 76.61891728h-78.22771346V307.87877097c0 21.11544964 17.09345923 38.41000839 38.4100084 38.41000839h402.1990408V41.42190645000005h-76.61891726c-42.2308993 0-76.61891727-34.38801799-76.61891727-76.61891728v-236.09083696c0-42.2308993 34.38801799-76.61891727 76.61891727-76.61891725H928.02946051c42.2308993 0 76.61891727 34.38801799 76.61891728 76.61891725V-34.99591131c0 42.2308993-34.38801799 76.61891727-76.61891729 76.61891727h-82.85300239V346.08767985h408.2320264c21.11544964 0 38.41000839-17.09345923 38.41000839-38.41000839V41.42190645000005H1213.59077948c-42.2308993 0-76.61891727-34.38801799-76.61891728-76.61891728v-236.09083696c0-42.2308993 34.38801799-76.61891727 76.61891728-76.61891725h236.09083696c42.2308993 0 76.61891727 34.38801799 76.61891725 76.61891725V-35.197010829999954c-0.20109953 42.2308993-34.58911749 76.61891727-76.82001679 76.61891728M691.73752403 1010.52049523h236.09083697v-236.09083693H691.73752403V1010.52049523m-285.56131894-1281.80834302H170.08536814V-35.197010829999954h236.09083695v-236.09083696m521.65215591 0H691.73752403V-35.197010829999954h236.09083697v-236.09083696m521.6521559 0H1213.38967994V-35.197010829999954h236.09083697v-236.09083696m0 0z"  horiz-adv-x="1638" />

    
    <glyph glyph-name="processchart2" unicode="&#58946;" d="M965.29066667 296.61866667000004h-147.456V400.384c0 6.00746667-4.9152 10.92266667-10.92266667 10.92266667h-267.60533333V471.38133333h147.456c21.2992 0 38.22933333 16.93013333 38.22933333 38.22933334V837.29066667c0 21.2992-16.93013333 38.22933333-38.22933333 38.22933333H337.23733333c-21.2992 0-38.22933333-16.93013333-38.22933333-38.22933333v-327.68c0-21.2992 16.93013333-38.22933333 38.22933333-38.22933334h147.456v-60.07466666H217.088c-6.00746667 0-10.92266667-4.9152-10.92266667-10.92266667v-103.76533333H58.70933333c-21.2992 0-38.22933333-16.93013333-38.22933333-38.22933334v-327.68c0-21.2992 16.93013333-38.22933333 38.22933333-38.22933333h349.52533334c21.2992 0 38.22933333 16.93013333 38.22933333 38.22933333v327.68c0 21.2992-16.93013333 38.22933333-38.22933333 38.22933334H260.77866667v60.07466666h502.44266666v-60.07466666h-147.456c-21.2992 0-38.22933333-16.93013333-38.22933333-38.22933334v-327.68c0-21.2992 16.93013333-38.22933333 38.22933333-38.22933333h349.52533334c21.2992 0 38.22933333 16.93013333 38.22933333 38.22933333v327.68c0 21.2992-16.93013333 38.22933333-38.22933333 38.22933334zM353.62133333 820.90666667h316.75733334v-294.912H353.62133333V820.90666667z m38.22933334-873.81333334H75.09333333v294.912h316.75733334v-294.912z m557.056 0h-316.75733334v294.912h316.75733334v-294.912zM610.304 766.29333333H413.696c-6.00746667 0-10.92266667-4.9152-10.92266667-10.92266666v-32.768c0-6.00746667 4.9152-10.92266667 10.92266667-10.92266667h196.608c6.00746667 0 10.92266667 4.9152 10.92266667 10.92266667v32.768c0 6.00746667-4.9152 10.92266667-10.92266667 10.92266666zM135.168 132.77866667h196.608c6.00746667 0 10.92266667 4.9152 10.92266667 10.92266666v32.768c0 6.00746667-4.9152 10.92266667-10.92266667 10.92266667H135.168c-6.00746667 0-10.92266667-4.9152-10.92266667-10.92266667v-32.768c0-6.00746667 4.9152-10.92266667 10.92266667-10.92266666zM692.224 132.77866667h196.608c6.00746667 0 10.92266667 4.9152 10.92266667 10.92266666v32.768c0 6.00746667-4.9152 10.92266667-10.92266667 10.92266667h-196.608c-6.00746667 0-10.92266667-4.9152-10.92266667-10.92266667v-32.768c0-6.00746667 4.9152-10.92266667 10.92266667-10.92266666z"  horiz-adv-x="1024" />

    
    <glyph glyph-name="word" unicode="&#58882;" d="M609.328827 369.546913h243.728281v-68.243919h-243.728281v68.243919zM609.328827 506.03475h243.728281v-68.828866h-243.728281V506.03475z m0-272.975674h243.728281V164.815157h-243.728281v68.243919zM947.136224 714.666159l-132.100728 129.955919C786.080576 873.089542 729.438124 896 688.345536 896H244.418845C203.716222 895.805017 170.764158 863.34041 170.617921 823.320227v-146.968154h59.420955V823.368972c0 7.701814 6.629409 14.769934 15.013662 14.769934h444.024182c4.387109 0 9.407912-0.584948 15.013663-1.657352v-231.590613h235.344028c1.072404-5.459513 1.657352-33.878231 1.657352-38.26534V-55.027753a15.159899 15.159899 0 0 0-15.013662-14.769933H245.003792a15.111153 15.111153 0 0 0-10.675298 4.289617 14.623697 14.623697 0 0 0-4.387109 10.480316v48.59942H170.617921v-48.59942c0.194983-40.068929 33.147046-72.436045 73.800924-72.631027h681.025562c40.458895 0 73.849669 32.757081 73.84967 72.679773V566.625601c0 39.873947-23.349169 119.573095-52.157853 147.991812z m-184.25858-51.377922V811.864997c3.899652-2.729757 7.799305-5.410768 10.529062-8.18927l131.51578-130.004665c2.778502-2.729757 5.508259-6.531918 8.87171-10.382825H762.877644zM24.380952 603.526063v-536.202219h536.202219V603.526063H24.380952z m393.231209-389.96525h-56.544961c-12.576379 39.873947-25.493978 79.699148-38.752797 119.426858 0 0.974913-0.584948 2.047318-1.706098 3.607178a164.077879 164.077879 0 0 0-3.217213 25.493979h-1.706098a30.709763 30.709763 0 0 0-1.706098-7.653068c-0.487457-7.360594-2.339791-14.623697-5.508259-21.448089-8.286762-21.399343-22.081782-61.224544-42.603704-119.426858H209.370718L121.872265 408.543438h60.395868c23.78788-64.344266 39.288999-106.168039 47.624506-124.496406 2.193555-6.629409 4.387109-14.379969 7.165611-23.00795a165.247775 165.247775 0 0 0 7.214358 22.910459A2136.522112 2136.522112 0 0 1 284.682757 408.543438h60.395868c23.78788-72.972247 36.510497-114.308564 38.801542-124.496406 2.193555-6.629409 4.387109-14.282477 7.165611-22.959204a165.247775 165.247775 0 0 0 7.214358 22.910458c10.529062 25.542724 28.223735 66.87904 53.18151 124.545152H511.837514l-94.225353-194.982625z"  horiz-adv-x="1024" />

    
    <glyph glyph-name="checkhistory" unicode="&#58890;" d="M204.8 179.25599999999997v-51.09H333.49c-0.64 8.43-0.968 16.95-0.968 25.545s0.326 17.114 0.968 25.545H204.8zM402.841 358.07000000000005H204.8v-51.09h165.156a332.45 332.45 0 0 0 32.887 51.09zM511.338 894.512H358.069v-51.089h153.27V894.513zM424.99-76.19299999999998H77.074c-14.109 0-25.544 11.436-25.544 25.545V817.878c0 14.109 11.435 25.545 25.544 25.545H199.59c16.148-5.512 30.43-19.372 30.754-51.09 0.567-55.838 76.634-51.089 76.634-51.089h255.449s71.482 0 76.634 58.493c2.328 26.431 15.483 38.574 30.254 43.687H792.33c14.109 0 25.545-11.436 25.545-25.545v-369.515a332.396 332.396 0 0 0 51.09-32.888V843.423c0 28.216-22.874 51.09-51.09 51.09H664.607s-76.634 15.12-76.634-51.09c0-35.079-21.512-47.326-41.742-51.09H330.968c-22.05 2.739-49.534 13.655-49.534 51.09 0 62.509-76.635 51.092-76.635 51.092l-0.002-0.003H51.53C23.313 894.512 0.44 871.64 0.44 843.423v-919.616c0-28.216 22.873-51.09 51.09-51.09h436.053a333.59 333.59 0 0 0-62.593 51.09z m239.617 613.076H204.8v-51.09h459.808v51.09z m0-102.179c-155.188 0-280.993-125.805-280.993-280.993s125.805-280.994 280.993-280.994 280.994 125.806 280.994 280.994-125.806 280.993-280.994 280.993z m153.27-306.538H639.063V306.98h51.089v-127.725h127.725v-51.088z"  horiz-adv-x="1024" />

    
    <glyph glyph-name="excel" unicode="&#58934;" d="M866.83136 675.80928l-110.2336 110.44352c-24.01792 23.99744-71.32672 43.70944-105.30816 43.70944H281.09824c-34.01728-0.11264-61.54752-27.73504-61.62432-61.824v-124.73344h49.33632V768.13312c0 6.74816 5.78048 12.31872 12.3648 12.31872h370.25792c3.60448 0 7.88992-0.42496 12.29824-1.29024v-196.48512h196.21888c0.8704-4.49024 1.29536-28.92288 1.29536-32.61952v-528c0-6.74304-5.78048-12.3136-12.34432-12.3136H281.09824a12.5696 12.5696 0 0 0-12.288 12.3136v41.45664h-49.40288v-41.45664c0-34.05312 27.70432-61.81888 61.69088-61.81888h567.71584c33.99168 0 61.69088 27.76576 61.69088 61.81888V549.97504c0 34.06848-19.59936 101.8368-43.61216 125.83424h-0.06144z m-153.856-43.70944V758.42048c3.13344-2.1248 6.0416-4.54144 8.68352-7.23968l110.15168-110.39232c2.65216-2.69312 5.06368-5.6064 7.23968-8.69376h-126.14656 0.07168zM593.85344 366.09536h202.51648v-57.96352h-202.51648v57.96352z m0-115.94752h202.51648v-57.984h-202.51648v57.984z m0 231.91552h202.51648v-57.96352h-202.51648V482.06336zM74.24 585.35424v-463.86176h462.90944V585.35424H74.24z m301.38368-386.4576l-70.14912 99.15392-70.36928-99.15392H132.32128l121.22624 167.72096-110.3104 154.30144h100.61312l62.9248-91.3152 61.696 91.3152h99.82976L357.632 364.36992l121.43616-165.47328H375.62368z"  horiz-adv-x="1024" />

    
    <glyph glyph-name="launchprocess" unicode="&#58989;" d="M833.408197 830.709995H190.591803c-66.839291 0-121.245412-54.407144-121.245412-121.245412v-650.927119c0-66.839291 54.407144-121.245412 121.245412-121.245412h642.816394c66.839291 0 121.245412 54.407144 121.245412 121.245412V709.46356c0 66.839291-54.406121 121.246435-121.245412 121.246435z m60.622706-772.173555c0-33.44881-27.173896-60.622706-60.622706-60.622706H190.591803c-33.44881 0-60.622706 27.173896-60.622706 60.622706V709.46356c0 33.44881 27.173896 60.622706 60.622706 60.622706h642.816394c33.44881 0 60.622706-27.173896 60.622706-60.622706v-650.92712zM712.51685 420.320207H548.349883V584.547549c0 20.069081-16.280802 36.349883-36.349883 36.349883s-36.349883-16.280802-36.349883-36.349883v-164.226319H311.422775c-20.069081 0-36.349883-16.280802-36.349882-36.349883s16.280802-36.349883 36.349882-36.349882h164.226319v-164.166967c0-20.069081 16.280802-36.349883 36.349883-36.349883s36.349883 16.280802 36.349882 36.349883V347.620441h164.166967c20.069081 0 36.349883 16.280802 36.349883 36.349883s-16.278755 36.349883-36.348859 36.349883z"  horiz-adv-x="1024" />

    
    <glyph glyph-name="liucheng1" unicode="&#58898;" d="M803.84 684.544h-49.664v-49.664h49.664c26.624 0 51.712-10.24 70.656-29.184 18.944-18.944 29.184-44.032 29.184-70.656s-10.24-51.712-29.184-70.656C855.552 445.44 830.464 435.2 803.84 435.2v49.664l-74.752-74.752 74.752-74.752v49.664c82.432 0 149.504 67.072 149.504 149.504-0.512 83.456-67.072 150.016-149.504 150.016zM729.088 659.968a24.576 24.576 0 1 1 49.152 0 24.576 24.576 0 1 1-49.152 0zM83.968 262.144c0-82.432 67.072-149.504 149.504-149.504v-49.664l74.752 74.752-74.752 74.752v-49.664c-26.624 0-51.712 10.24-70.656 29.184-18.944 18.944-29.184 44.032-29.184 70.656s10.24 51.712 29.184 70.656c18.944 18.944 44.032 29.184 70.656 29.184h49.664V412.16h-49.664c-82.432-0.512-149.504-67.584-149.504-150.016zM258.56 387.072a24.576 24.576 0 1 1 49.152 0 24.576 24.576 0 1 1-49.152 0zM596.992 565.248H446.976c-61.44 0-111.616 50.176-111.616 111.616S385.536 788.48 446.976 788.48h150.016c61.44 0 111.616-50.176 111.616-111.616s-49.664-111.616-111.616-111.616zM447.488 737.28c-33.28 0-60.416-27.136-60.416-60.416s27.136-60.416 60.416-60.416h150.016c33.28 0 60.416 27.136 60.416 60.416s-27.136 60.416-60.416 60.416H447.488z m149.504-446.976H446.976c-61.44 0-111.616 50.176-111.616 111.616s50.176 111.616 111.616 111.616h150.016c61.44 0 111.616-50.176 111.616-111.616s-49.664-111.616-111.616-111.616zM447.488 462.336c-33.28 0-60.416-27.136-60.416-60.416s27.136-60.416 60.416-60.416h150.016c33.28 0 60.416 27.136 60.416 60.416s-27.136 60.416-60.416 60.416H447.488z m149.504-453.632H446.976c-61.44 0-111.616 50.176-111.616 111.616s50.176 111.616 111.616 111.616h150.016c61.44 0 111.616-50.176 111.616-111.616s-49.664-111.616-111.616-111.616zM447.488 180.736c-33.28 0-60.416-27.136-60.416-60.416s27.136-60.416 60.416-60.416h150.016c33.28 0 60.416 27.136 60.416 60.416s-27.136 60.416-60.416 60.416H447.488z"  horiz-adv-x="1024" />

    
    <glyph glyph-name="pdf" unicode="&#59139;" d="M844.708 307.186c-16.044 15.962-42.104 15.962-90.21 21.95-32.072-5.988-68.164 1.986-108.246-9.988-16.044 15.974-36.092 19.974-50.114 37.924-40.094 27.948-74.178 87.82-90.208 137.728 0 7.988 1.996 7.988 1.996 15.96 0-1.986 22.056 125.756 16.044 161.68 0 9.974-2.01 5.986-2.01 13.974l-1.996 4c-6.012 15.96-18.04 23.948-36.09 27.934l-10.018-1.986c-24.052 5.986-34.08-13.974-42.104-21.96-10.016-53.886 0-117.758 26.06-217.564l-6.012-11.974-60.13-127.74-1.996-1.988c-20.048-39.924-40.096-73.86-56.126-103.794l-18.04-7.988c0-1.986-32.072-15.96-38.086-21.948-60.13-31.936-98.218-77.846-104.242-105.794-6.014-15.96 0-17.96 10.016-31.934l16.044-5.976c4.018-7.986 18.04-4 22.044-7.986 44.1 5.986 92.216 47.908 160.368 173.652 78.182 15.974 164.386 45.92 244.576 55.884 58.136-31.936 134.296-59.872 178.408-55.884 8.022-3.988 16.044 4 20.048 0 8.022 7.986 18.04 4 22.056 17.96 12.026 5.988 8.022 33.936 8.022 47.91 0 7.986-6.012 11.974-10.018 19.96l-0.036-2.012zM213.248 81.64c6.014 25.948 40.096 59.884 82.188 101.794 6.014 0 8.02 7.988 18.04 13.974-50.114-71.858-76.174-107.768-100.24-113.768l0.014-2zM479.87 696.4c16.032 5.974 22.046-37.922 22.046-65.87 0-33.924-6.014-51.898-16.032-71.86-4.016 23.95-12.026 65.86-12.026 89.82 0-3.986 1.996 51.898 6.014 47.91zM399.68 261.278c12.026 11.974 18.04 33.934 30.076 51.908 26.06 45.91 42.092 81.832 52.122 113.768 20.048-47.896 52.12-75.844 84.196-107.78 4.016 0 12.026-9.974 14.034-7.988-68.152-21.948-126.286-29.936-180.416-51.896v1.988h-0.012z m430.98 3.986c0-9.986-18.04-1.986-22.044-5.986-26.06 5.986-56.126 9.986-98.218 29.948 14.036 0 34.07 5.986 44.1 0 26.06 5.986 32.074-4 56.126-4 26.06-9.974 26.06-15.96 20.048-21.948v1.986h-0.012zM906.846 698.4L762.52 838.116C732.442 874.04 670.292 890.012 626.204 896L145.098 894C100.998 899.988 64.906 858.08 64.906 816.154v-864.244c0-35.936 36.092-83.834 80.192-77.846l737.696-2c44.088 5.988 80.178 35.936 80.178 81.832V558.672c0 49.908-24.052 103.792-56.126 139.728z m-46.108-47.91c6.012 0 4.016-9.974 10.03-9.974l-164.386-2V804.18l12.026-9.974 142.33-141.716v-2z m22.056-712.556l-737.696-2c-10.03 5.988-16.044 7.988-16.044 17.962V814.168c0 15.96 6.014 11.974 16.044 17.96l481.106-2c4.004 4 12.014-1.986 16.03 2v-257.482l254.594 2c0-7.988 1.996-9.988 1.996-17.962v-604.788c0-5.986-6.012-17.96-16.03-15.96z"  horiz-adv-x="1024" />

    
    <glyph glyph-name="processchart" unicode="&#58937;" d="M878.48421013 148.30035093000004a131.129488 131.129488 0 0 0 130.78456214-130.78456106 131.129488 131.129488 0 0 0-130.78456214-130.78456214 126.4729824 126.4729824 0 0 0-122.79376853 91.63542507H481.53150827a159.8158592 159.8158592 0 0 0-161.31053974 161.31053973v53.8085056c-74.7340352 14.4869056-130.26717227 71.80216107-150.847776 151.3651648H53.8228768c-23.05257493 0-39.14913707 16.09656107-39.149136 39.14913707 0 23.11006293 16.09656107 39.14913707 39.149136 39.14913707H169.37319253c19.94823893 76.86108053 73.9866944 130.84204907 150.790288 150.84777493V628.32280747A159.8158592 159.8158592 0 0 0 481.53150827 789.6333472h274.21642133A126.4729824 126.4729824 0 0 0 878.48421013 881.26877227a131.129488 131.129488 0 0 0 130.78456214-130.78456214A131.129488 131.129488 0 0 0 878.48421013 619.6996490700001a126.4729824 126.4729824 0 0 0-122.79376853 91.63542506H481.53150827c-44.09308053 0-83.01226667-38.91918613-83.01226667-83.01226666v-53.8085056c74.7340352-14.4869056 130.26717227-71.80216107 150.847776-151.3651648h206.380912a126.4729824 126.4729824 0 0 0 122.79376853 91.635424A131.129488 131.129488 0 0 0 1009.26877227 384a131.129488 131.129488 0 0 0-130.78456214-130.78456107 126.4729824 126.4729824 0 0 0-122.79376853 91.635424h-206.380912c-20.00572587-76.86108053-74.0441824-130.84204907-150.84777493-150.84777493v-54.32589547c0-44.09308053 38.91918613-83.01226667 83.01226666-83.01226666h274.21642027a126.4729824 126.4729824 0 0 0 122.79376853 91.63542506z m0 532.45125654c41.3911584 0 69.67511573 28.34144533 69.67511574 69.73260266 0 41.3911584-28.2839584 69.67511573-69.67511574 69.67511574s-69.73260373-28.2839584-69.73260266-69.67511574 28.34144533-69.73260373 69.73260266-69.73260266z m0-357.80356587c36.6196768 0 61.10944533 24.43228053 61.1094464 61.0519584s-24.43228053 61.10944533-61.1094464 61.10944533c-36.6196768 0-61.10944533-24.48976853-61.10944533-61.10944533s24.48976853-61.10944533 61.10944533-61.10944533z m0-366.54169813c36.6196768 0 61.10944533 24.43228053 61.1094464 61.1094464 0 36.6196768-24.43228053 61.10944533-61.1094464 61.10944533-36.6196768 0-61.10944533-24.48976853-61.10944533-61.10944533s24.48976853-61.10944533 61.10944533-61.1094464z m-519.17159253 305.4322528A122.5063296 122.5063296 0 0 1 481.47402133 384a122.5063296 122.5063296 0 0 1-122.16140373 122.16140373A122.5063296 122.5063296 0 0 1 237.15121387 384c0-67.20314347 54.9582592-122.16140373 122.16140373-122.16140373z"  horiz-adv-x="1024" />

    
    <glyph glyph-name="edit" unicode="&#58920;" d="M860 392c-19.9 0-36-16.1-36-36 0-1.4 0.1-2.7 0.2-4h-0.2v-344H136V696h376c19.9 0 36 16.1 36 36s-16.1 36-36 36H136c-39.8 0-72-32.2-72-72v-688c0-39.8 32.2-72 72-72h688c39.8 0 72 32.2 72 72V352h-0.2c0.1 1.3 0.2 2.6 0.2 4 0 19.9-16.1 36-36 36zM1002.7 795.7L923.4 875c-28.1 28.1-73.9 27.9-102-0.2L424.2 477.6c-2.9-2.9-5.2-6.4-6.8-10.2L317.6 232c-5.6-13.2-1.7-26.5 6.8-35.1 8.5-8.6 21.9-12.5 35.2-6.9l235.5 99.7c3.8 1.6 7.2 3.9 10.2 6.8l397.2 397.2c28.1 28.1 28.3 73.9 0.2 102zM559.8 353l-137.4-58.2 58.2 137.4L759.4 711l79.2-79.2L559.8 353z m391.7 391.7l-62-62-79.2 79.2 62 62 0.2 0.2 79.2-79.2-0.2-0.2z"  horiz-adv-x="1024" />

    


  </font>
</defs>
</svg>
